<?xml version="1.0" encoding="UTF-8" standalone="no"?>
<!DOCTYPE svg PUBLIC "-//W3C//DTD SVG 1.1//EN"
 "http://www.w3.org/Graphics/SVG/1.1/DTD/svg11.dtd">
<!-- Generated by graphviz version 2.34.0 (20131004.2030)
 -->
<!-- Title: DependencyTree Pages: 1 -->
<svg width="278pt" height="316pt"
 viewBox="0.00 0.00 278.00 316.00" xmlns="http://www.w3.org/2000/svg" xmlns:xlink="http://www.w3.org/1999/xlink">
<g id="graph0" class="graph" transform="scale(1 1) rotate(0) translate(4 312)">
<title>DependencyTree</title>
<polygon fill="white" stroke="white" points="-4,4 -4,-312 274,-312 274,4 -4,4"/>
<g id="clust1" class="cluster"><title>cluster_legend</title>
<polygon fill="none" stroke="black" stroke-dasharray="1,5" points="144,-8 144,-300 262,-300 262,-8 144,-8"/>
<text text-anchor="middle" x="203" y="-282" font-family="Times,serif" font-size="14.00">Legend</text>
</g>
<!-- basic -->
<g id="node1" class="node"><title>basic</title>
<polygon fill="none" stroke="black" points="54,-268 12,-268 12,-272 0,-272 0,-232 54,-232 54,-268"/>
<polyline fill="none" stroke="black" points="0,-268 12,-268 "/>
<text text-anchor="middle" x="27" y="-244.4" font-family="Times,serif" font-size="14.00">basic</text>
</g>
<!-- 2 -->
<g id="node2" class="node"><title>2</title>
<polygon fill="none" stroke="black" points="54,-196 51,-200 30,-200 27,-196 0,-196 0,-160 54,-160 54,-196"/>
<text text-anchor="middle" x="27" y="-172.4" font-family="Times,serif" font-size="14.00">2</text>
</g>
<!-- basic&#45;&gt;2 -->
<g id="edge1" class="edge"><title>basic&#45;&gt;2</title>
<path fill="none" stroke="black" d="M27,-231.697C27,-223.983 27,-214.712 27,-206.112"/>
<polygon fill="black" stroke="black" points="30.5001,-206.104 27,-196.104 23.5001,-206.104 30.5001,-206.104"/>
</g>
<!-- 1 -->
<g id="node5" class="node"><title>1</title>
<polygon fill="none" stroke="black" points="56,-124 53,-128 32,-128 29,-124 2,-124 2,-88 56,-88 56,-124"/>
<text text-anchor="middle" x="29" y="-100.4" font-family="Times,serif" font-size="14.00">1</text>
</g>
<!-- 2&#45;&gt;1 -->
<g id="edge3" class="edge"><title>2&#45;&gt;1</title>
<path fill="none" stroke="black" d="M27.4944,-159.697C27.7148,-151.983 27.9796,-142.712 28.2254,-134.112"/>
<polygon fill="black" stroke="black" points="31.7242,-134.2 28.5113,-124.104 24.727,-134 31.7242,-134.2"/>
</g>
<!-- z -->
<g id="node6" class="node"><title>z</title>
<polygon fill="none" stroke="black" points="129,-124 75,-124 75,-88 129,-88 129,-124"/>
<text text-anchor="middle" x="102" y="-100.4" font-family="Times,serif" font-size="14.00">z</text>
</g>
<!-- 2&#45;&gt;z -->
<g id="edge4" class="edge"><title>2&#45;&gt;z</title>
<path fill="none" stroke="black" d="M45.5393,-159.697C54.8033,-151.05 66.1623,-140.449 76.2567,-131.027"/>
<polygon fill="black" stroke="black" points="78.7515,-133.486 83.6739,-124.104 73.9752,-128.369 78.7515,-133.486"/>
</g>
<!-- debug -->
<g id="node3" class="node"><title>debug</title>
<polygon fill="none" stroke="black" points="131,-268 89,-268 89,-272 77,-272 77,-232 131,-232 131,-268"/>
<polyline fill="none" stroke="black" points="77,-268 89,-268 "/>
<text text-anchor="middle" x="104" y="-244.4" font-family="Times,serif" font-size="14.00">debug</text>
</g>
<!-- 2_debug -->
<g id="node4" class="node"><title>2_debug</title>
<polygon fill="none" stroke="black" points="136.161,-196 133.161,-200 112.161,-200 109.161,-196 71.8394,-196 71.8394,-160 136.161,-160 136.161,-196"/>
<text text-anchor="middle" x="104" y="-172.4" font-family="Times,serif" font-size="14.00">2_debug</text>
</g>
<!-- debug&#45;&gt;2_debug -->
<g id="edge2" class="edge"><title>debug&#45;&gt;2_debug</title>
<path fill="none" stroke="black" d="M104,-231.697C104,-223.983 104,-214.712 104,-206.112"/>
<polygon fill="black" stroke="black" points="107.5,-206.104 104,-196.104 100.5,-206.104 107.5,-206.104"/>
</g>
<!-- 2_debug&#45;&gt;1 -->
<g id="edge5" class="edge"><title>2_debug&#45;&gt;1</title>
<path fill="none" stroke="black" d="M85.4607,-159.697C76.1967,-151.05 64.8377,-140.449 54.7433,-131.027"/>
<polygon fill="black" stroke="black" points="57.0248,-128.369 47.3261,-124.104 52.2485,-133.486 57.0248,-128.369"/>
</g>
<!-- 2_debug&#45;&gt;z -->
<g id="edge6" class="edge"><title>2_debug&#45;&gt;z</title>
<path fill="none" stroke="black" d="M103.506,-159.697C103.285,-151.983 103.02,-142.712 102.775,-134.112"/>
<polygon fill="black" stroke="black" points="106.273,-134 102.489,-124.104 99.2758,-134.2 106.273,-134"/>
</g>
<!-- executables -->
<g id="node7" class="node"><title>executables</title>
<polygon fill="none" stroke="black" points="243.472,-268 174.528,-268 174.528,-272 162.528,-272 162.528,-232 243.472,-232 243.472,-268"/>
<polyline fill="none" stroke="black" points="162.528,-268 174.528,-268 "/>
<text text-anchor="middle" x="203" y="-244.4" font-family="Times,serif" font-size="14.00">executables</text>
</g>
<!-- static libraries -->
<g id="node8" class="node"><title>static libraries</title>
<polygon fill="none" stroke="black" points="250.186,-196 247.186,-200 226.186,-200 223.186,-196 155.814,-196 155.814,-160 250.186,-160 250.186,-196"/>
<text text-anchor="middle" x="203" y="-172.4" font-family="Times,serif" font-size="14.00">static libraries</text>
</g>
<!-- executables&#45;&gt;static libraries -->
<!-- shared libraries -->
<g id="node9" class="node"><title>shared libraries</title>
<polygon fill="none" stroke="black" points="253.431,-124 152.569,-124 152.569,-120 148.569,-120 148.569,-116 152.569,-116 152.569,-96 148.569,-96 148.569,-92 152.569,-92 152.569,-88 253.431,-88 253.431,-124"/>
<polyline fill="none" stroke="black" points="152.569,-120 156.569,-120 156.569,-116 152.569,-116 "/>
<polyline fill="none" stroke="black" points="152.569,-96 156.569,-96 156.569,-92 152.569,-92 "/>
<text text-anchor="middle" x="203" y="-100.4" font-family="Times,serif" font-size="14.00">shared libraries</text>
</g>
<!-- static libraries&#45;&gt;shared libraries -->
<!-- binary libraries -->
<g id="node10" class="node"><title>binary libraries</title>
<polygon fill="none" stroke="black" points="253.351,-52 152.649,-52 152.649,-16 253.351,-16 253.351,-52"/>
<text text-anchor="middle" x="203" y="-28.4" font-family="Times,serif" font-size="14.00">binary libraries</text>
</g>
<!-- shared libraries&#45;&gt;binary libraries -->
</g>
</svg>
